M48
; DRILL file {KiCad (5.1.5-0)} date Friday, March 26, 2021 at 09:01:58 PM
; FORMAT={-:-/ absolute / metric / decimal}
; #@! TF.CreationDate,2021-03-26T21:01:58-04:00
; #@! TF.GenerationSoftware,Kicad,Pcbnew,(5.1.5-0)
; #@! TF.FileFunction,Plated,1,2,PTH
FMAT,2
METRIC
T1C0.800
T2C1.000
T3C1.100
T4C4.500
%
G90
G05
T1
X180.73Y19.73
X183.182Y7.49
X183.182Y5.49
X183.27Y19.73
X185.182Y7.49
X185.182Y5.49
X187.182Y7.49
X187.182Y5.49
T2
X105.0Y-1.0
X105.0Y-3.54
X105.0Y-6.08
X105.0Y-8.62
X131.13Y25.0
X133.67Y25.0
X136.21Y25.0
X138.75Y25.0
X114.0Y13.597
X116.54Y13.597
X195.5Y-11.75
X195.5Y-14.29
X195.5Y-16.83
X195.5Y-19.37
X195.5Y-21.91
X131.5Y-35.25
X134.04Y-35.25
X136.58Y-35.25
X139.12Y-35.25
X192.96Y12.75
X192.96Y10.21
X192.96Y7.67
X192.96Y5.13
X192.96Y2.59
X195.5Y12.75
X195.5Y10.21
X195.5Y7.67
X195.5Y5.13
X195.5Y2.59
X155.46Y25.0
X158.0Y25.0
X160.54Y25.0
X163.08Y25.0
X195.5Y-1.96
X195.5Y-4.5
X155.0Y-36.0
X157.54Y-36.0
X160.08Y-36.0
X162.62Y-36.0
X114.0Y20.0
X116.54Y20.0
T3
X174.38Y20.46
X174.38Y17.92
X174.38Y15.38
X174.38Y12.84
X174.38Y10.3
X174.38Y7.76
X174.38Y5.22
X174.38Y2.68
X174.38Y0.14
X174.38Y-2.4
X174.38Y-4.94
X174.38Y-7.48
X174.38Y-10.02
X174.38Y-12.56
X174.38Y-15.1
X174.38Y-17.64
X174.38Y-20.18
X174.38Y-22.72
X174.38Y-25.26
X174.38Y-27.8
X174.38Y-30.34
X174.38Y-32.88
X174.38Y-35.42
X174.38Y-37.96
X176.92Y-25.26
X177.431Y14.161
X177.431Y11.621
X177.431Y9.081
X177.431Y6.541
X177.431Y4.001
X179.46Y-25.26
X182.0Y-25.26
X184.54Y-25.26
X187.08Y17.92
X187.08Y-25.26
X189.62Y20.46
X189.62Y17.92
X189.62Y15.38
X189.62Y12.84
X189.62Y10.3
X189.62Y7.76
X189.62Y5.22
X189.62Y2.68
X189.62Y0.14
X189.62Y-2.4
X189.62Y-4.94
X189.62Y-7.48
X189.62Y-10.02
X189.62Y-12.56
X189.62Y-15.1
X189.62Y-17.64
X189.62Y-20.18
X189.62Y-22.72
X189.62Y-25.26
X189.62Y-27.8
X189.62Y-30.34
X189.62Y-32.88
X189.62Y-35.42
X189.62Y-37.96
X126.36Y-18.15
X126.36Y-30.85
X128.9Y-18.15
X128.9Y-30.85
X131.44Y-18.15
X131.44Y-30.85
X133.98Y-18.15
X133.98Y-30.85
X136.52Y-18.15
X136.52Y-30.85
X139.06Y-18.15
X139.06Y-30.85
X141.6Y-18.15
X141.6Y-30.85
X144.14Y-18.15
X144.14Y-30.85
X126.11Y20.242
X126.11Y7.542
X128.65Y20.242
X128.65Y7.542
X131.19Y20.242
X131.19Y7.542
X133.73Y20.242
X133.73Y7.542
X136.27Y20.242
X136.27Y7.542
X138.81Y20.242
X138.81Y7.542
X141.35Y20.242
X141.35Y7.542
X143.89Y20.242
X143.89Y7.542
X149.847Y-18.232
X149.847Y-30.932
X152.387Y-18.232
X152.387Y-30.932
X154.927Y-18.232
X154.927Y-30.932
X157.467Y-18.232
X157.467Y-30.932
X160.007Y-18.232
X160.007Y-30.932
X162.547Y-18.232
X162.547Y-30.932
X165.087Y-18.232
X165.087Y-30.932
X167.627Y-18.232
X167.627Y-30.932
X150.433Y20.552
X150.433Y7.852
X152.973Y20.552
X152.973Y7.852
X155.513Y20.552
X155.513Y7.852
X158.053Y20.552
X158.053Y7.852
X160.593Y20.552
X160.593Y7.852
X163.133Y20.552
X163.133Y7.852
X165.673Y20.552
X165.673Y7.852
X168.213Y20.552
X168.213Y7.852
X109.65Y3.89
X109.65Y1.35
X109.65Y-1.19
X109.65Y-3.73
X109.65Y-6.27
X109.65Y-8.81
X109.65Y-11.35
X109.65Y-13.89
X122.35Y3.89
X122.35Y1.35
X122.35Y-1.19
X122.35Y-3.73
X122.35Y-6.27
X122.35Y-8.81
X122.35Y-11.35
X122.35Y-13.89
T4
X106.0Y22.6
X106.0Y15.4
T0
M30
