G04 #@! TF.GenerationSoftware,KiCad,Pcbnew,(5.1.5-0-10_14)*
G04 #@! TF.CreationDate,2021-03-22T23:07:49-05:00*
G04 #@! TF.ProjectId,Board,426f6172-642e-46b6-9963-61645f706362,rev?*
G04 #@! TF.SameCoordinates,Original*
G04 #@! TF.FileFunction,Copper,L1,Top*
G04 #@! TF.FilePolarity,Positive*
%FSLAX46Y46*%
G04 Gerber Fmt 4.6, Leading zero omitted, Abs format (unit mm)*
G04 Created by KiCad (PCBNEW (5.1.5-0-10_14)) date 2021-03-22 23:07:49*
%MOMM*%
%LPD*%
G04 APERTURE LIST*
%ADD10R,1.700000X1.700000*%
%ADD11O,1.700000X1.700000*%
%ADD12C,1.650000*%
%ADD13R,1.650000X1.650000*%
%ADD14R,5.516000X5.516000*%
%ADD15C,5.516000*%
%ADD16C,1.600000*%
%ADD17R,1.600000X1.600000*%
%ADD18R,1.300000X1.300000*%
%ADD19C,1.300000*%
G04 APERTURE END LIST*
D10*
X195500000Y-11750000D03*
D11*
X195500000Y-14290000D03*
X195500000Y-16830000D03*
X195500000Y-19370000D03*
X195500000Y-21910000D03*
D10*
X131500000Y-35250000D03*
D11*
X134040000Y-35250000D03*
X136580000Y-35250000D03*
X139120000Y-35250000D03*
D12*
X133730000Y7542401D03*
X133730000Y20242401D03*
X136270000Y7542401D03*
X138810000Y7542401D03*
X141350000Y7542401D03*
X143890000Y7542401D03*
X131190000Y7542401D03*
X128650000Y7542401D03*
D13*
X126110000Y7542401D03*
D12*
X131190000Y20242401D03*
X128650000Y20242401D03*
X126110000Y20242401D03*
X136270000Y20242401D03*
X138810000Y20242401D03*
X141350000Y20242401D03*
X143890000Y20242401D03*
X126360000Y-30850000D03*
X128900000Y-30850000D03*
X131440000Y-30850000D03*
X133980000Y-30850000D03*
X144140000Y-30850000D03*
X141600000Y-30850000D03*
X139060000Y-30850000D03*
D13*
X144140000Y-18150000D03*
D12*
X141600000Y-18150000D03*
X139060000Y-18150000D03*
X126360000Y-18150000D03*
X128900000Y-18150000D03*
X131440000Y-18150000D03*
X133980000Y-18150000D03*
X136520000Y-30850000D03*
X136520000Y-18150000D03*
X158052601Y7852401D03*
X158052601Y20552401D03*
X160592601Y7852401D03*
X163132601Y7852401D03*
X165672601Y7852401D03*
X168212601Y7852401D03*
X155512601Y7852401D03*
X152972601Y7852401D03*
D13*
X150432601Y7852401D03*
D12*
X155512601Y20552401D03*
X152972601Y20552401D03*
X150432601Y20552401D03*
X160592601Y20552401D03*
X163132601Y20552401D03*
X165672601Y20552401D03*
X168212601Y20552401D03*
X160007399Y-18232401D03*
X160007399Y-30932401D03*
X157467399Y-18232401D03*
X154927399Y-18232401D03*
X152387399Y-18232401D03*
X149847399Y-18232401D03*
X162547399Y-18232401D03*
X165087399Y-18232401D03*
D13*
X167627399Y-18232401D03*
D12*
X162547399Y-30932401D03*
X165087399Y-30932401D03*
X167627399Y-30932401D03*
X157467399Y-30932401D03*
X154927399Y-30932401D03*
X152387399Y-30932401D03*
X149847399Y-30932401D03*
X109650000Y3890000D03*
X109650000Y1350000D03*
X109650000Y-1190000D03*
X109650000Y-3730000D03*
X109650000Y-13890000D03*
X109650000Y-11350000D03*
X109650000Y-8810000D03*
D13*
X122350000Y-13890000D03*
D12*
X122350000Y-11350000D03*
X122350000Y-8810000D03*
X122350000Y3890000D03*
X122350000Y1350000D03*
X122350000Y-1190000D03*
X122350000Y-3730000D03*
X109650000Y-6270000D03*
X122350000Y-6270000D03*
D11*
X131130000Y25000000D03*
X133670000Y25000000D03*
X136210000Y25000000D03*
D10*
X138750000Y25000000D03*
D11*
X155460000Y25000000D03*
X158000000Y25000000D03*
X160540000Y25000000D03*
D10*
X163080000Y25000000D03*
X155000000Y-36000000D03*
D11*
X157540000Y-36000000D03*
X160080000Y-36000000D03*
X162620000Y-36000000D03*
D10*
X105000000Y-1000000D03*
D11*
X105000000Y-3540000D03*
X105000000Y-6080000D03*
X105000000Y-8620000D03*
D14*
X106000000Y15400000D03*
D15*
X106000000Y22600000D03*
D10*
X114000000Y13597401D03*
D11*
X116540000Y13597401D03*
D10*
X195500000Y12750000D03*
D11*
X192960000Y12750000D03*
X195500000Y10210000D03*
X192960000Y10210000D03*
X195500000Y7670000D03*
X192960000Y7670000D03*
X195500000Y5130000D03*
X192960000Y5130000D03*
X195500000Y2590000D03*
X192960000Y2590000D03*
X116540000Y20000000D03*
D10*
X114000000Y20000000D03*
D16*
X187080000Y17920000D03*
X177430800Y4000800D03*
X177430800Y6540800D03*
X177430800Y9080800D03*
X177430800Y11620800D03*
D17*
X177430800Y14160800D03*
D16*
X189620000Y20460000D03*
X189620000Y17920000D03*
X189620000Y15380000D03*
X189620000Y12840000D03*
X189620000Y10300000D03*
X189620000Y7760000D03*
X189620000Y5220000D03*
X189620000Y2680000D03*
X189620000Y140000D03*
X189620000Y-2400000D03*
X189620000Y-4940000D03*
X189620000Y-7480000D03*
X189620000Y-10020000D03*
X189620000Y-12560000D03*
D17*
X174380000Y20460000D03*
D16*
X174380000Y17920000D03*
X174380000Y15380000D03*
X174380000Y12840000D03*
X174380000Y10300000D03*
X174380000Y7760000D03*
X174380000Y5220000D03*
X174380000Y2680000D03*
X174380000Y140000D03*
X174380000Y-2400000D03*
X174380000Y-4940000D03*
X174380000Y-7480000D03*
X174380000Y-10020000D03*
X189620000Y-15100000D03*
X189620000Y-17640000D03*
X189620000Y-20180000D03*
X189620000Y-22720000D03*
X189620000Y-25260000D03*
X189620000Y-27800000D03*
X189620000Y-30340000D03*
X189620000Y-32880000D03*
X189620000Y-35420000D03*
X189620000Y-37960000D03*
X174380000Y-37960000D03*
X174380000Y-35420000D03*
X174380000Y-32880000D03*
X174380000Y-30340000D03*
X174380000Y-12560000D03*
X174380000Y-15100000D03*
X174380000Y-17640000D03*
X174380000Y-27800000D03*
X174380000Y-25260000D03*
X174380000Y-22720000D03*
X174380000Y-20180000D03*
D18*
X187181600Y7490000D03*
D19*
X187181600Y5490000D03*
X185181600Y7490000D03*
X185181600Y5490000D03*
X183181600Y5490000D03*
X183181600Y7490000D03*
D16*
X176920000Y-25260000D03*
X179460000Y-25260000D03*
X182000000Y-25260000D03*
X184540000Y-25260000D03*
X187080000Y-25260000D03*
D19*
X180730000Y19730000D03*
X183270000Y19730000D03*
D10*
X195500000Y-4500000D03*
D11*
X195500000Y-1960000D03*
M02*
