M48
; DRILL file {KiCad (5.1.5-0)} date Thursday, February 25, 2021 at 04:11:48 PM
; FORMAT={-:-/ absolute / metric / decimal}
; #@! TF.CreationDate,2021-02-25T16:11:48-05:00
; #@! TF.GenerationSoftware,Kicad,Pcbnew,(5.1.5-0)
; #@! TF.FileFunction,Plated,1,2,PTH
FMAT,2
METRIC
T1C0.699
T2C0.800
T3C1.000
T4C1.100
T5C4.500
%
G90
G05
T1
X116.341Y0.0
X118.841Y0.0
T2
X129.825Y-9.165
X129.825Y-11.705
X129.825Y-14.245
X129.825Y-16.785
X129.825Y-19.325
X129.825Y-21.865
X129.825Y-24.405
X129.825Y-26.945
X129.825Y-29.485
X129.825Y-32.025
X129.825Y-34.565
X129.825Y-37.105
X129.825Y-39.645
X129.825Y-42.185
X129.825Y-44.725
X145.065Y-9.165
X145.065Y-11.705
X145.065Y-14.245
X145.065Y-16.785
X145.065Y-19.325
X145.065Y-21.865
X145.065Y-24.405
X145.065Y-26.945
X145.065Y-29.485
X145.065Y-32.025
X145.065Y-34.565
X145.065Y-37.105
X145.065Y-39.645
X145.065Y-42.185
X145.065Y-44.725
T3
X106.68Y-36.83
X106.68Y-39.37
X106.68Y-41.91
X106.68Y-44.45
X157.48Y3.81
X157.48Y1.27
X157.48Y-1.27
X160.02Y-45.72
X160.02Y-48.26
X152.4Y-41.91
X154.94Y-41.91
X157.48Y-41.91
X160.02Y-41.91
X162.56Y-41.91
X165.1Y-41.91
X152.4Y3.81
X152.4Y1.27
X152.4Y-1.27
X153.67Y-48.26
X156.21Y-48.26
X106.68Y-13.97
X106.68Y-16.51
X106.68Y-19.05
X106.68Y-21.59
X123.19Y0.0
X125.73Y0.0
T4
X110.49Y-31.75
X110.49Y-34.29
X110.49Y-36.83
X110.49Y-39.37
X110.49Y-41.91
X110.49Y-44.45
X110.49Y-46.99
X110.49Y-49.53
X123.19Y-31.75
X123.19Y-34.29
X123.19Y-36.83
X123.19Y-39.37
X123.19Y-41.91
X123.19Y-44.45
X123.19Y-46.99
X123.19Y-49.53
X110.49Y-8.89
X110.49Y-11.43
X110.49Y-13.97
X110.49Y-16.51
X110.49Y-19.05
X110.49Y-21.59
X110.49Y-24.13
X110.49Y-26.67
X123.19Y-8.89
X123.19Y-11.43
X123.19Y-13.97
X123.19Y-16.51
X123.19Y-19.05
X123.19Y-21.59
X123.19Y-24.13
X123.19Y-26.67
T5
X133.35Y0.0
X140.55Y0.0
T0
M30
