M48
; DRILL file {KiCad (5.1.5-0-10_14)} date Monday, March 22, 2021 at 11:07:58 PM
; FORMAT={-:-/ absolute / inch / decimal}
; #@! TF.CreationDate,2021-03-22T23:07:58-05:00
; #@! TF.GenerationSoftware,Kicad,Pcbnew,(5.1.5-0-10_14)
; #@! TF.FileFunction,Plated,1,2,PTH
FMAT,2
INCH
T1C0.0315
T2C0.0394
T3C0.0433
T4C0.1772
%
G90
G05
T1
X7.1154Y0.7768
X7.2119Y0.2949
X7.2119Y0.2161
X7.2154Y0.7768
X7.2906Y0.2949
X7.2906Y0.2161
X7.3694Y0.2949
X7.3694Y0.2161
T2
X5.1626Y0.9843
X5.2626Y0.9843
X5.3626Y0.9843
X5.4626Y0.9843
X7.6969Y-0.4626
X7.6969Y-0.5626
X7.6969Y-0.6626
X7.6969Y-0.7626
X7.6969Y-0.8626
X4.4882Y0.7874
X4.5882Y0.7874
X6.1205Y0.9843
X6.2205Y0.9843
X6.3205Y0.9843
X6.4205Y0.9843
X4.1339Y-0.0394
X4.1339Y-0.1394
X4.1339Y-0.2394
X4.1339Y-0.3394
X7.6969Y-0.0772
X7.6969Y-0.1772
X4.4882Y0.5353
X4.5882Y0.5353
X5.1772Y-1.3878
X5.2772Y-1.3878
X5.3772Y-1.3878
X5.4772Y-1.3878
X7.5969Y0.502
X7.5969Y0.402
X7.5969Y0.302
X7.5969Y0.202
X7.5969Y0.102
X7.6969Y0.502
X7.6969Y0.402
X7.6969Y0.302
X7.6969Y0.202
X7.6969Y0.102
X6.1024Y-1.4173
X6.2024Y-1.4173
X6.3024Y-1.4173
X6.4024Y-1.4173
T3
X6.8654Y0.8055
X6.8654Y0.7055
X6.8654Y0.6055
X6.8654Y0.5055
X6.8654Y0.4055
X6.8654Y0.3055
X6.8654Y0.2055
X6.8654Y0.1055
X6.8654Y0.0055
X6.8654Y-0.0945
X6.8654Y-0.1945
X6.8654Y-0.2945
X6.8654Y-0.3945
X6.8654Y-0.4945
X6.8654Y-0.5945
X6.8654Y-0.6945
X6.8654Y-0.7945
X6.8654Y-0.8945
X6.8654Y-0.9945
X6.8654Y-1.0945
X6.8654Y-1.1945
X6.8654Y-1.2945
X6.8654Y-1.3945
X6.8654Y-1.4945
X6.9654Y-0.9945
X6.9855Y0.5575
X6.9855Y0.4575
X6.9855Y0.3575
X6.9855Y0.2575
X6.9855Y0.1575
X7.0654Y-0.9945
X7.1654Y-0.9945
X7.2654Y-0.9945
X7.3654Y0.7055
X7.3654Y-0.9945
X7.4654Y0.8055
X7.4654Y0.7055
X7.4654Y0.6055
X7.4654Y0.5055
X7.4654Y0.4055
X7.4654Y0.3055
X7.4654Y0.2055
X7.4654Y0.1055
X7.4654Y0.0055
X7.4654Y-0.0945
X7.4654Y-0.1945
X7.4654Y-0.2945
X7.4654Y-0.3945
X7.4654Y-0.4945
X7.4654Y-0.5945
X7.4654Y-0.6945
X7.4654Y-0.7945
X7.4654Y-0.8945
X7.4654Y-0.9945
X7.4654Y-1.0945
X7.4654Y-1.1945
X7.4654Y-1.2945
X7.4654Y-1.3945
X7.4654Y-1.4945
X4.965Y0.7969
X4.965Y0.2969
X5.065Y0.7969
X5.065Y0.2969
X5.165Y0.7969
X5.165Y0.2969
X5.265Y0.7969
X5.265Y0.2969
X5.365Y0.7969
X5.365Y0.2969
X5.465Y0.7969
X5.465Y0.2969
X5.565Y0.7969
X5.565Y0.2969
X5.665Y0.7969
X5.665Y0.2969
X5.9225Y0.8091
X5.9225Y0.3091
X6.0225Y0.8091
X6.0225Y0.3091
X6.1225Y0.8091
X6.1225Y0.3091
X6.2225Y0.8091
X6.2225Y0.3091
X6.3225Y0.8091
X6.3225Y0.3091
X6.4225Y0.8091
X6.4225Y0.3091
X6.5225Y0.8091
X6.5225Y0.3091
X6.6225Y0.8091
X6.6225Y0.3091
X4.9748Y-0.7146
X4.9748Y-1.2146
X5.0748Y-0.7146
X5.0748Y-1.2146
X5.1748Y-0.7146
X5.1748Y-1.2146
X5.2748Y-0.7146
X5.2748Y-1.2146
X5.3748Y-0.7146
X5.3748Y-1.2146
X5.4748Y-0.7146
X5.4748Y-1.2146
X5.5748Y-0.7146
X5.5748Y-1.2146
X5.6748Y-0.7146
X5.6748Y-1.2146
X4.3169Y0.1531
X4.3169Y0.0531
X4.3169Y-0.0469
X4.3169Y-0.1469
X4.3169Y-0.2469
X4.3169Y-0.3469
X4.3169Y-0.4469
X4.3169Y-0.5469
X4.8169Y0.1531
X4.8169Y0.0531
X4.8169Y-0.0469
X4.8169Y-0.1469
X4.8169Y-0.2469
X4.8169Y-0.3469
X4.8169Y-0.4469
X4.8169Y-0.5469
X5.8995Y-0.7178
X5.8995Y-1.2178
X5.9995Y-0.7178
X5.9995Y-1.2178
X6.0995Y-0.7178
X6.0995Y-1.2178
X6.1995Y-0.7178
X6.1995Y-1.2178
X6.2995Y-0.7178
X6.2995Y-1.2178
X6.3995Y-0.7178
X6.3995Y-1.2178
X6.4995Y-0.7178
X6.4995Y-1.2178
X6.5995Y-0.7178
X6.5995Y-1.2178
T4
X4.1732Y0.8898
X4.1732Y0.6063
T0
M30
