G04 #@! TF.GenerationSoftware,KiCad,Pcbnew,(5.1.5-0)*
G04 #@! TF.CreationDate,2021-02-25T16:11:31-05:00*
G04 #@! TF.ProjectId,Board,426f6172-642e-46b6-9963-61645f706362,rev?*
G04 #@! TF.SameCoordinates,Original*
G04 #@! TF.FileFunction,Copper,L1,Top*
G04 #@! TF.FilePolarity,Positive*
%FSLAX46Y46*%
G04 Gerber Fmt 4.6, Leading zero omitted, Abs format (unit mm)*
G04 Created by KiCad (PCBNEW (5.1.5-0)) date 2021-02-25 16:11:31*
%MOMM*%
%LPD*%
G04 APERTURE LIST*
%ADD10R,1.600000X1.600000*%
%ADD11O,1.600000X1.600000*%
%ADD12R,1.651000X1.651000*%
%ADD13C,1.651000*%
%ADD14C,1.650000*%
%ADD15R,1.650000X1.650000*%
%ADD16R,1.700000X1.700000*%
%ADD17O,1.700000X1.700000*%
%ADD18R,5.516000X5.516000*%
%ADD19C,5.516000*%
%ADD20C,1.000000*%
%ADD21C,0.500000*%
%ADD22C,0.750000*%
G04 APERTURE END LIST*
D10*
X129825001Y-9165001D03*
D11*
X145065001Y-42185001D03*
X129825001Y-11705001D03*
X145065001Y-39645001D03*
X129825001Y-14245001D03*
X145065001Y-37105001D03*
X129825001Y-16785001D03*
X145065001Y-34565001D03*
X129825001Y-19325001D03*
X145065001Y-32025001D03*
X129825001Y-21865001D03*
X145065001Y-29485001D03*
X129825001Y-24405001D03*
X145065001Y-26945001D03*
X129825001Y-26945001D03*
X145065001Y-24405001D03*
X129825001Y-29485001D03*
X145065001Y-21865001D03*
X129825001Y-32025001D03*
X145065001Y-19325001D03*
X129825001Y-34565001D03*
X145065001Y-16785001D03*
X129825001Y-37105001D03*
X145065001Y-14245001D03*
X129825001Y-39645001D03*
X145065001Y-11705001D03*
X129825001Y-42185001D03*
X145065001Y-9165001D03*
X129825001Y-44725001D03*
X145065001Y-44725001D03*
D12*
X118840641Y0D03*
D13*
X116341281Y0D03*
D14*
X123190000Y-19050000D03*
X110490000Y-19050000D03*
X123190000Y-16510000D03*
X123190000Y-13970000D03*
X123190000Y-11430000D03*
X123190000Y-8890000D03*
X123190000Y-21590000D03*
X123190000Y-24130000D03*
D15*
X123190000Y-26670000D03*
D14*
X110490000Y-21590000D03*
X110490000Y-24130000D03*
X110490000Y-26670000D03*
X110490000Y-16510000D03*
X110490000Y-13970000D03*
X110490000Y-11430000D03*
X110490000Y-8890000D03*
X110490000Y-31750000D03*
X110490000Y-34290000D03*
X110490000Y-36830000D03*
X110490000Y-39370000D03*
X110490000Y-49530000D03*
X110490000Y-46990000D03*
X110490000Y-44450000D03*
D15*
X123190000Y-49530000D03*
D14*
X123190000Y-46990000D03*
X123190000Y-44450000D03*
X123190000Y-31750000D03*
X123190000Y-34290000D03*
X123190000Y-36830000D03*
X123190000Y-39370000D03*
X110490000Y-41910000D03*
X123190000Y-41910000D03*
D16*
X152400000Y-41910000D03*
D17*
X154940000Y-41910000D03*
X157480000Y-41910000D03*
X160020000Y-41910000D03*
X162560000Y-41910000D03*
X165100000Y-41910000D03*
X106680000Y-21590000D03*
X106680000Y-19050000D03*
X106680000Y-16510000D03*
D16*
X106680000Y-13970000D03*
D17*
X157480000Y3810000D03*
X157480000Y1270000D03*
D16*
X157480000Y-1270000D03*
X106680000Y-36830000D03*
D17*
X106680000Y-39370000D03*
X106680000Y-41910000D03*
X106680000Y-44450000D03*
D18*
X133350000Y0D03*
D19*
X140550000Y0D03*
D16*
X123190000Y0D03*
D17*
X125730000Y0D03*
D16*
X152400000Y3810000D03*
D17*
X152400000Y1270000D03*
X152400000Y-1270000D03*
X160020000Y-45720000D03*
D16*
X160020000Y-48260000D03*
X153670000Y-48260000D03*
D17*
X156210000Y-48260000D03*
D20*
X116341281Y-1167433D02*
X117713848Y-2540000D01*
X116341281Y0D02*
X116341281Y-1167433D01*
X117713848Y-2540000D02*
X124460000Y-2540000D01*
X125730000Y-1270000D02*
X125730000Y0D01*
X124460000Y-2540000D02*
X125730000Y-1270000D01*
X140550000Y-3900401D02*
X140550000Y0D01*
X139370401Y-5080000D02*
X140550000Y-3900401D01*
X139370401Y-6010401D02*
X142240000Y-8880000D01*
X139370401Y-5080000D02*
X139370401Y-6010401D01*
X142240000Y-8880000D02*
X142240000Y-11430000D01*
X142515001Y-11705001D02*
X145065001Y-11705001D01*
X142240000Y-11430000D02*
X142515001Y-11705001D01*
X116840000Y-2540000D02*
X110490000Y-8890000D01*
X117713848Y-2540000D02*
X116840000Y-2540000D01*
D21*
X160020000Y-38100000D02*
X160020000Y-41910000D01*
X147320000Y-38100000D02*
X160020000Y-38100000D01*
X132080000Y-41910000D02*
X137160000Y-46990000D01*
X137160000Y-46990000D02*
X147320000Y-46990000D01*
X147320000Y-46990000D02*
X147320000Y-38100000D01*
X132080000Y-19040000D02*
X132080000Y-41910000D01*
X129825001Y-16785001D02*
X132080000Y-19040000D01*
X160020000Y-41910000D02*
X160020000Y-45720000D01*
X145065001Y-11705001D02*
X147044999Y-11705001D01*
X147044999Y-11705001D02*
X147595001Y-11705001D01*
X152400000Y3810000D02*
X157480000Y3810000D01*
X166370000Y-45720000D02*
X160020000Y-45720000D01*
X167005000Y-31115000D02*
X167005000Y-45085000D01*
X167005000Y-45085000D02*
X166370000Y-45720000D01*
X147595001Y-11705001D02*
X167005000Y-31115000D01*
X149225000Y-10075002D02*
X147595001Y-11705001D01*
X149225000Y3810000D02*
X149225000Y-10075002D01*
X152400000Y3810000D02*
X149225000Y3810000D01*
D20*
X125730000Y-1905000D02*
X125730000Y-1270000D01*
X128905000Y-5080000D02*
X125730000Y-1905000D01*
X139370401Y-5080000D02*
X128905000Y-5080000D01*
X110490000Y-8890000D02*
X105410000Y-8890000D01*
X105410000Y-8890000D02*
X103505000Y-10795000D01*
X103505000Y-10795000D02*
X103505000Y-24130000D01*
X103505000Y-24130000D02*
X110490000Y-24130000D01*
X110490000Y-24130000D02*
X112395000Y-24130000D01*
X112395000Y-24130000D02*
X113665000Y-25400000D01*
X113665000Y-28575000D02*
X110490000Y-31750000D01*
X113665000Y-25400000D02*
X113665000Y-28575000D01*
X110490000Y-31750000D02*
X106045000Y-31750000D01*
X106045000Y-31750000D02*
X103505000Y-34290000D01*
X103505000Y-34290000D02*
X103505000Y-46355000D01*
X104140000Y-46990000D02*
X110490000Y-46990000D01*
X103505000Y-46355000D02*
X104140000Y-46990000D01*
D21*
X123190000Y-8890000D02*
X125730000Y-8890000D01*
X125730000Y-8890000D02*
X127000000Y-10160000D01*
X127000000Y-16500000D02*
X129825001Y-19325001D01*
X127000000Y-10160000D02*
X127000000Y-16500000D01*
X123190000Y-11430000D02*
X124460000Y-11430000D01*
X124460000Y-11430000D02*
X125730000Y-12700000D01*
X125730000Y-17770000D02*
X129825001Y-21865001D01*
X125730000Y-12700000D02*
X125730000Y-17770000D01*
X124515000Y-26670000D02*
X125730000Y-25455000D01*
X123190000Y-26670000D02*
X124515000Y-26670000D01*
X125730000Y-25455000D02*
X125730000Y-25400000D01*
X126724999Y-24405001D02*
X129825001Y-24405001D01*
X125730000Y-25400000D02*
X126724999Y-24405001D01*
X123190000Y-31750000D02*
X124460000Y-31750000D01*
X126724999Y-29485001D02*
X129825001Y-29485001D01*
X124460000Y-31750000D02*
X126724999Y-29485001D01*
X123190000Y-34290000D02*
X124460000Y-34290000D01*
X126724999Y-32025001D02*
X129825001Y-32025001D01*
X124460000Y-34290000D02*
X126724999Y-32025001D01*
X124515000Y-49530000D02*
X125730000Y-48315000D01*
X123190000Y-49530000D02*
X124515000Y-49530000D01*
X125730000Y-48315000D02*
X125730000Y-35560000D01*
X126724999Y-34565001D02*
X129825001Y-34565001D01*
X125730000Y-35560000D02*
X126724999Y-34565001D01*
D22*
X123190000Y-13970000D02*
X123190000Y-16510000D01*
X123190000Y-21590000D02*
X123190000Y-24130000D01*
X123190000Y-36830000D02*
X123190000Y-39370000D01*
X123190000Y-44450000D02*
X123190000Y-46990000D01*
D21*
X110490000Y-11430000D02*
X116840000Y-11430000D01*
X119380000Y-13970000D02*
X123190000Y-13970000D01*
X116840000Y-11430000D02*
X119380000Y-13970000D01*
X110490000Y-34290000D02*
X115570000Y-34290000D01*
X118110000Y-36830000D02*
X123190000Y-36830000D01*
X115570000Y-34290000D02*
X118110000Y-36830000D01*
X121920000Y-44450000D02*
X123190000Y-44450000D01*
X120650000Y-43180000D02*
X121920000Y-44450000D01*
X120650000Y-40640000D02*
X120650000Y-43180000D01*
X121920000Y-39370000D02*
X120650000Y-40640000D01*
X123190000Y-39370000D02*
X121920000Y-39370000D01*
X123190000Y-16510000D02*
X121920000Y-16510000D01*
X121920000Y-16510000D02*
X120650000Y-17780000D01*
X120650000Y-17780000D02*
X120650000Y-20320000D01*
X121920000Y-21590000D02*
X123190000Y-21590000D01*
X120650000Y-20320000D02*
X121920000Y-21590000D01*
X123190000Y-24130000D02*
X120650000Y-24130000D01*
X120650000Y-24130000D02*
X115570000Y-29210000D01*
X115570000Y-29210000D02*
X115570000Y-34290000D01*
X119380000Y-8890000D02*
X116840000Y-11430000D01*
X119380000Y-6350000D02*
X119380000Y-8890000D01*
X145065001Y-16785001D02*
X146325001Y-16785001D01*
X146325001Y-16785001D02*
X151130000Y-21590000D01*
X151130000Y-21590000D02*
X151130000Y-25400000D01*
X162560000Y-36830000D02*
X162560000Y-41910000D01*
X151130000Y-25400000D02*
X162560000Y-36830000D01*
X145065001Y-16785001D02*
X142515001Y-16785001D01*
X142515001Y-16785001D02*
X132715000Y-6985000D01*
X132715000Y-6985000D02*
X126365000Y-6985000D01*
X125730000Y-6350000D02*
X119380000Y-6350000D01*
X126365000Y-6985000D02*
X125730000Y-6350000D01*
X127000000Y-37380002D02*
X127275001Y-37105001D01*
X127000000Y-49530000D02*
X127000000Y-37380002D01*
X132080000Y-49530000D02*
X127000000Y-49530000D01*
X133350000Y-50800000D02*
X132080000Y-49530000D01*
X127275001Y-37105001D02*
X129825001Y-37105001D01*
X156210000Y-10160000D02*
X156210000Y-13970000D01*
X152400000Y-6350000D02*
X156210000Y-10160000D01*
X156210000Y-13970000D02*
X168275000Y-26035000D01*
X152400000Y-1270000D02*
X152400000Y-6350000D01*
X133350000Y-50800000D02*
X163830000Y-50800000D01*
X163830000Y-50800000D02*
X168275000Y-46355000D01*
X168275000Y-46355000D02*
X168275000Y-26035000D01*
X134630000Y-46990000D02*
X129825001Y-42185001D01*
X134630000Y-46990000D02*
X134630000Y-47000000D01*
X134630000Y-47000000D02*
X135890000Y-48260000D01*
X135890000Y-48260000D02*
X148590000Y-48260000D01*
X148590000Y-48260000D02*
X148590000Y-39370000D01*
X148590000Y-39370000D02*
X157480000Y-39370000D01*
X157480000Y-39370000D02*
X157480000Y-41910000D01*
D20*
X118840641Y1825500D02*
X120825141Y3810000D01*
X118840641Y0D02*
X118840641Y1825500D01*
X133298000Y3810000D02*
X133350000Y3758000D01*
X133350000Y3758000D02*
X133350000Y0D01*
X123190000Y0D02*
X123190000Y3810000D01*
X123190000Y3810000D02*
X133298000Y3810000D01*
X120825141Y3810000D02*
X123190000Y3810000D01*
X133350000Y3758000D02*
X133402000Y3810000D01*
X133350000Y3758000D02*
X133350000Y3810000D01*
X133350000Y3810000D02*
X134620000Y5080000D01*
X134620000Y5080000D02*
X146050000Y5080000D01*
X146050000Y-8180002D02*
X145065001Y-9165001D01*
X146050000Y5080000D02*
X146050000Y-8180002D01*
X120825141Y3810000D02*
X114300000Y3810000D01*
X114300000Y3810000D02*
X101600000Y-8890000D01*
X101600000Y-8890000D02*
X101600000Y-26670000D01*
X101600000Y-26670000D02*
X110490000Y-26670000D01*
X104140000Y-49530000D02*
X110490000Y-49530000D01*
X103505000Y-49530000D02*
X104140000Y-49530000D01*
X101600000Y-47625000D02*
X103505000Y-49530000D01*
X101600000Y-26670000D02*
X101600000Y-47625000D01*
D21*
X151050000Y-49530000D02*
X134630000Y-49530000D01*
X134630000Y-49530000D02*
X129825001Y-44725001D01*
X152320000Y-48260000D02*
X151050000Y-49530000D01*
X153670000Y-48260000D02*
X152320000Y-48260000D01*
D20*
X106680000Y-19050000D02*
X110490000Y-19050000D01*
X106680000Y-21590000D02*
X110490000Y-21590000D01*
X106680000Y-16510000D02*
X110490000Y-16510000D01*
X106680000Y-13970000D02*
X110490000Y-13970000D01*
X106680000Y-36830000D02*
X110490000Y-36830000D01*
X106680000Y-39370000D02*
X110490000Y-39370000D01*
X106680000Y-44450000D02*
X110490000Y-44450000D01*
X106680000Y-41910000D02*
X110490000Y-41910000D01*
D21*
X160020000Y-48260000D02*
X156210000Y-48260000D01*
X154940000Y-41910000D02*
X154940000Y-44450000D01*
X156210000Y-45720000D02*
X156210000Y-48260000D01*
X154940000Y-44450000D02*
X156210000Y-45720000D01*
X152400000Y1270000D02*
X157480000Y1270000D01*
X157480000Y1270000D02*
X157480000Y-1270000D01*
M02*
