G04 #@! TF.GenerationSoftware,KiCad,Pcbnew,(5.1.5-0)*
G04 #@! TF.CreationDate,2021-02-22T20:00:31-05:00*
G04 #@! TF.ProjectId,Board,426f6172-642e-46b6-9963-61645f706362,rev?*
G04 #@! TF.SameCoordinates,Original*
G04 #@! TF.FileFunction,Copper,L1,Top*
G04 #@! TF.FilePolarity,Positive*
%FSLAX46Y46*%
G04 Gerber Fmt 4.6, Leading zero omitted, Abs format (unit mm)*
G04 Created by KiCad (PCBNEW (5.1.5-0)) date 2021-02-22 20:00:31*
%MOMM*%
%LPD*%
G04 APERTURE LIST*
%ADD10R,1.600000X1.600000*%
%ADD11O,1.600000X1.600000*%
%ADD12R,1.651000X1.651000*%
%ADD13C,1.651000*%
%ADD14C,1.650000*%
%ADD15R,1.650000X1.650000*%
%ADD16R,1.700000X1.700000*%
%ADD17O,1.700000X1.700000*%
%ADD18R,5.516000X5.516000*%
%ADD19C,5.516000*%
%ADD20C,1.000000*%
%ADD21C,0.500000*%
%ADD22C,0.750000*%
G04 APERTURE END LIST*
D10*
X129825001Y-77745001D03*
D11*
X145065001Y-110765001D03*
X129825001Y-80285001D03*
X145065001Y-108225001D03*
X129825001Y-82825001D03*
X145065001Y-105685001D03*
X129825001Y-85365001D03*
X145065001Y-103145001D03*
X129825001Y-87905001D03*
X145065001Y-100605001D03*
X129825001Y-90445001D03*
X145065001Y-98065001D03*
X129825001Y-92985001D03*
X145065001Y-95525001D03*
X129825001Y-95525001D03*
X145065001Y-92985001D03*
X129825001Y-98065001D03*
X145065001Y-90445001D03*
X129825001Y-100605001D03*
X145065001Y-87905001D03*
X129825001Y-103145001D03*
X145065001Y-85365001D03*
X129825001Y-105685001D03*
X145065001Y-82825001D03*
X129825001Y-108225001D03*
X145065001Y-80285001D03*
X129825001Y-110765001D03*
X145065001Y-77745001D03*
X129825001Y-113305001D03*
X145065001Y-113305001D03*
D12*
X118840641Y-68580000D03*
D13*
X116341281Y-68580000D03*
D14*
X123190000Y-87630000D03*
X110490000Y-87630000D03*
X123190000Y-85090000D03*
X123190000Y-82550000D03*
X123190000Y-80010000D03*
X123190000Y-77470000D03*
X123190000Y-90170000D03*
X123190000Y-92710000D03*
D15*
X123190000Y-95250000D03*
D14*
X110490000Y-90170000D03*
X110490000Y-92710000D03*
X110490000Y-95250000D03*
X110490000Y-85090000D03*
X110490000Y-82550000D03*
X110490000Y-80010000D03*
X110490000Y-77470000D03*
X110490000Y-100330000D03*
X110490000Y-102870000D03*
X110490000Y-105410000D03*
X110490000Y-107950000D03*
X110490000Y-118110000D03*
X110490000Y-115570000D03*
X110490000Y-113030000D03*
D15*
X123190000Y-118110000D03*
D14*
X123190000Y-115570000D03*
X123190000Y-113030000D03*
X123190000Y-100330000D03*
X123190000Y-102870000D03*
X123190000Y-105410000D03*
X123190000Y-107950000D03*
X110490000Y-110490000D03*
X123190000Y-110490000D03*
D16*
X152400000Y-110490000D03*
D17*
X154940000Y-110490000D03*
X157480000Y-110490000D03*
X160020000Y-110490000D03*
X162560000Y-110490000D03*
X165100000Y-110490000D03*
X106680000Y-90170000D03*
X106680000Y-87630000D03*
X106680000Y-85090000D03*
D16*
X106680000Y-82550000D03*
D17*
X157480000Y-64770000D03*
X157480000Y-67310000D03*
D16*
X157480000Y-69850000D03*
X106680000Y-105410000D03*
D17*
X106680000Y-107950000D03*
X106680000Y-110490000D03*
X106680000Y-113030000D03*
D18*
X133350000Y-68580000D03*
D19*
X140550000Y-68580000D03*
D16*
X123190000Y-68580000D03*
D17*
X125730000Y-68580000D03*
D16*
X152400000Y-64770000D03*
D17*
X152400000Y-67310000D03*
X152400000Y-69850000D03*
X160020000Y-114300000D03*
D16*
X160020000Y-116840000D03*
X153670000Y-116840000D03*
D17*
X156210000Y-116840000D03*
D20*
X116341281Y-69747433D02*
X117713848Y-71120000D01*
X116341281Y-68580000D02*
X116341281Y-69747433D01*
X117713848Y-71120000D02*
X124460000Y-71120000D01*
X125730000Y-69850000D02*
X125730000Y-68580000D01*
X124460000Y-71120000D02*
X125730000Y-69850000D01*
X140550000Y-72480401D02*
X140550000Y-68580000D01*
X130810000Y-73660000D02*
X139370401Y-73660000D01*
X139370401Y-73660000D02*
X140550000Y-72480401D01*
X125730000Y-68580000D02*
X130810000Y-73660000D01*
X139370401Y-74590401D02*
X142240000Y-77460000D01*
X139370401Y-73660000D02*
X139370401Y-74590401D01*
X142240000Y-77460000D02*
X142240000Y-80010000D01*
X142515001Y-80285001D02*
X145065001Y-80285001D01*
X142240000Y-80010000D02*
X142515001Y-80285001D01*
X116840000Y-71120000D02*
X110490000Y-77470000D01*
X117713848Y-71120000D02*
X116840000Y-71120000D01*
D21*
X110490000Y-77470000D02*
X106680000Y-77470000D01*
X106680000Y-77470000D02*
X104140000Y-80010000D01*
X104140000Y-80010000D02*
X104140000Y-92710000D01*
X104140000Y-92710000D02*
X110490000Y-92710000D01*
X110490000Y-92710000D02*
X111760000Y-92710000D01*
X111760000Y-92710000D02*
X113030000Y-93980000D01*
X113030000Y-97790000D02*
X110490000Y-100330000D01*
X113030000Y-93980000D02*
X113030000Y-97790000D01*
X104140000Y-115570000D02*
X110490000Y-115570000D01*
X104140000Y-104140000D02*
X104140000Y-115570000D01*
X110490000Y-100330000D02*
X107950000Y-100330000D01*
X107950000Y-100330000D02*
X106680000Y-100330000D01*
X106680000Y-100330000D02*
X104140000Y-102870000D01*
X104140000Y-102870000D02*
X104140000Y-104140000D01*
X160020000Y-106680000D02*
X160020000Y-110490000D01*
X147320000Y-106680000D02*
X160020000Y-106680000D01*
X132080000Y-110490000D02*
X137160000Y-115570000D01*
X137160000Y-115570000D02*
X147320000Y-115570000D01*
X147320000Y-115570000D02*
X147320000Y-106680000D01*
X132080000Y-87620000D02*
X132080000Y-110490000D01*
X129825001Y-85365001D02*
X132080000Y-87620000D01*
X160020000Y-110490000D02*
X160020000Y-114300000D01*
X145065001Y-80285001D02*
X147044999Y-80285001D01*
X147044999Y-80285001D02*
X147595001Y-80285001D01*
X166400001Y-99090001D02*
X166400001Y-114269999D01*
X147595001Y-80285001D02*
X166400001Y-99090001D01*
X166370000Y-114300000D02*
X160020000Y-114300000D01*
X166400001Y-114269999D02*
X166370000Y-114300000D01*
X151050000Y-64770000D02*
X152400000Y-64770000D01*
X147595001Y-68224999D02*
X151050000Y-64770000D01*
X147595001Y-80285001D02*
X147595001Y-68224999D01*
X152400000Y-64770000D02*
X157480000Y-64770000D01*
X123190000Y-77470000D02*
X125730000Y-77470000D01*
X125730000Y-77470000D02*
X127000000Y-78740000D01*
X127000000Y-85080000D02*
X129825001Y-87905001D01*
X127000000Y-78740000D02*
X127000000Y-85080000D01*
X123190000Y-80010000D02*
X124460000Y-80010000D01*
X124460000Y-80010000D02*
X125730000Y-81280000D01*
X125730000Y-86350000D02*
X129825001Y-90445001D01*
X125730000Y-81280000D02*
X125730000Y-86350000D01*
X124515000Y-95250000D02*
X125730000Y-94035000D01*
X123190000Y-95250000D02*
X124515000Y-95250000D01*
X125730000Y-94035000D02*
X125730000Y-93980000D01*
X126724999Y-92985001D02*
X129825001Y-92985001D01*
X125730000Y-93980000D02*
X126724999Y-92985001D01*
X123190000Y-100330000D02*
X124460000Y-100330000D01*
X126724999Y-98065001D02*
X129825001Y-98065001D01*
X124460000Y-100330000D02*
X126724999Y-98065001D01*
X123190000Y-102870000D02*
X124460000Y-102870000D01*
X126724999Y-100605001D02*
X129825001Y-100605001D01*
X124460000Y-102870000D02*
X126724999Y-100605001D01*
X124515000Y-118110000D02*
X125730000Y-116895000D01*
X123190000Y-118110000D02*
X124515000Y-118110000D01*
X125730000Y-116895000D02*
X125730000Y-104140000D01*
X126724999Y-103145001D02*
X129825001Y-103145001D01*
X125730000Y-104140000D02*
X126724999Y-103145001D01*
D22*
X123190000Y-82550000D02*
X123190000Y-85090000D01*
X123190000Y-90170000D02*
X123190000Y-92710000D01*
X123190000Y-105410000D02*
X123190000Y-107950000D01*
X123190000Y-113030000D02*
X123190000Y-115570000D01*
D21*
X110490000Y-80010000D02*
X116840000Y-80010000D01*
X119380000Y-82550000D02*
X123190000Y-82550000D01*
X116840000Y-80010000D02*
X119380000Y-82550000D01*
X110490000Y-102870000D02*
X115570000Y-102870000D01*
X118110000Y-105410000D02*
X123190000Y-105410000D01*
X115570000Y-102870000D02*
X118110000Y-105410000D01*
X121920000Y-113030000D02*
X123190000Y-113030000D01*
X120650000Y-111760000D02*
X121920000Y-113030000D01*
X120650000Y-109220000D02*
X120650000Y-111760000D01*
X121920000Y-107950000D02*
X120650000Y-109220000D01*
X123190000Y-107950000D02*
X121920000Y-107950000D01*
X123190000Y-85090000D02*
X121920000Y-85090000D01*
X121920000Y-85090000D02*
X120650000Y-86360000D01*
X120650000Y-86360000D02*
X120650000Y-88900000D01*
X121920000Y-90170000D02*
X123190000Y-90170000D01*
X120650000Y-88900000D02*
X121920000Y-90170000D01*
X123190000Y-92710000D02*
X120650000Y-92710000D01*
X120650000Y-92710000D02*
X115570000Y-97790000D01*
X115570000Y-97790000D02*
X115570000Y-102870000D01*
X145065001Y-85365001D02*
X143785001Y-85365001D01*
X143785001Y-85365001D02*
X133350000Y-74930000D01*
X133350000Y-74930000D02*
X119380000Y-74930000D01*
X119380000Y-77470000D02*
X116840000Y-80010000D01*
X119380000Y-74930000D02*
X119380000Y-77470000D01*
X145065001Y-85365001D02*
X146325001Y-85365001D01*
X146325001Y-85365001D02*
X151130000Y-90170000D01*
X151130000Y-90170000D02*
X151130000Y-93980000D01*
X162560000Y-105410000D02*
X162560000Y-110490000D01*
X151130000Y-93980000D02*
X162560000Y-105410000D01*
X127275001Y-105685001D02*
X129825001Y-105685001D01*
X127000000Y-118110000D02*
X127000000Y-105960002D01*
X133350000Y-119380000D02*
X132080000Y-118110000D01*
X167640000Y-119380000D02*
X133350000Y-119380000D01*
X127000000Y-105960002D02*
X127275001Y-105685001D01*
X132080000Y-118110000D02*
X127000000Y-118110000D01*
X167640000Y-93980000D02*
X167640000Y-119380000D01*
X152400000Y-74930000D02*
X156210000Y-78740000D01*
X156210000Y-82550000D02*
X167640000Y-93980000D01*
X156210000Y-78740000D02*
X156210000Y-82550000D01*
X152400000Y-69850000D02*
X152400000Y-74930000D01*
X134630000Y-115570000D02*
X129825001Y-110765001D01*
X134630000Y-115570000D02*
X134630000Y-115580000D01*
X134630000Y-115580000D02*
X135890000Y-116840000D01*
X135890000Y-116840000D02*
X148590000Y-116840000D01*
X148590000Y-116840000D02*
X148590000Y-107950000D01*
X148590000Y-107950000D02*
X157480000Y-107950000D01*
X157480000Y-107950000D02*
X157480000Y-110490000D01*
D20*
X118840641Y-66754500D02*
X120825141Y-64770000D01*
X118840641Y-68580000D02*
X118840641Y-66754500D01*
X133298000Y-64770000D02*
X133350000Y-64822000D01*
X133350000Y-64822000D02*
X133350000Y-68580000D01*
X123190000Y-68580000D02*
X123190000Y-64770000D01*
X123190000Y-64770000D02*
X133298000Y-64770000D01*
X120825141Y-64770000D02*
X123190000Y-64770000D01*
X133350000Y-64822000D02*
X133402000Y-64770000D01*
X133350000Y-64822000D02*
X133350000Y-64770000D01*
X133350000Y-64770000D02*
X134620000Y-63500000D01*
X134620000Y-63500000D02*
X146050000Y-63500000D01*
X146050000Y-76760002D02*
X145065001Y-77745001D01*
X146050000Y-63500000D02*
X146050000Y-76760002D01*
X120825141Y-64770000D02*
X114300000Y-64770000D01*
X114300000Y-64770000D02*
X101600000Y-77470000D01*
X101600000Y-77470000D02*
X101600000Y-95250000D01*
X101600000Y-95250000D02*
X110490000Y-95250000D01*
X101600000Y-95250000D02*
X101600000Y-115570000D01*
X101600000Y-115570000D02*
X104140000Y-118110000D01*
X104140000Y-118110000D02*
X110490000Y-118110000D01*
D21*
X151050000Y-118110000D02*
X134630000Y-118110000D01*
X134630000Y-118110000D02*
X129825001Y-113305001D01*
X152320000Y-116840000D02*
X151050000Y-118110000D01*
X153670000Y-116840000D02*
X152320000Y-116840000D01*
D20*
X106680000Y-87630000D02*
X110490000Y-87630000D01*
X106680000Y-90170000D02*
X110490000Y-90170000D01*
X106680000Y-85090000D02*
X110490000Y-85090000D01*
X106680000Y-82550000D02*
X110490000Y-82550000D01*
X106680000Y-105410000D02*
X110490000Y-105410000D01*
X106680000Y-107950000D02*
X110490000Y-107950000D01*
X106680000Y-113030000D02*
X110490000Y-113030000D01*
X106680000Y-110490000D02*
X110490000Y-110490000D01*
D21*
X160020000Y-116840000D02*
X156210000Y-116840000D01*
X154940000Y-110490000D02*
X154940000Y-113030000D01*
X156210000Y-114300000D02*
X156210000Y-116840000D01*
X154940000Y-113030000D02*
X156210000Y-114300000D01*
X152400000Y-67310000D02*
X157480000Y-67310000D01*
X157480000Y-67310000D02*
X157480000Y-69850000D01*
M02*
