M48
; DRILL file {KiCad (5.1.5-0)} date Monday, February 22, 2021 at 08:00:47 PM
; FORMAT={-:-/ absolute / metric / decimal}
; #@! TF.CreationDate,2021-02-22T20:00:47-05:00
; #@! TF.GenerationSoftware,Kicad,Pcbnew,(5.1.5-0)
; #@! TF.FileFunction,Plated,1,2,PTH
FMAT,2
METRIC
T1C0.699
T2C0.800
T3C1.000
T4C1.100
T5C4.500
%
G90
G05
T1
X116.341Y-68.58
X118.841Y-68.58
T2
X129.825Y-77.745
X129.825Y-80.285
X129.825Y-82.825
X129.825Y-85.365
X129.825Y-87.905
X129.825Y-90.445
X129.825Y-92.985
X129.825Y-95.525
X129.825Y-98.065
X129.825Y-100.605
X129.825Y-103.145
X129.825Y-105.685
X129.825Y-108.225
X129.825Y-110.765
X129.825Y-113.305
X145.065Y-77.745
X145.065Y-80.285
X145.065Y-82.825
X145.065Y-85.365
X145.065Y-87.905
X145.065Y-90.445
X145.065Y-92.985
X145.065Y-95.525
X145.065Y-98.065
X145.065Y-100.605
X145.065Y-103.145
X145.065Y-105.685
X145.065Y-108.225
X145.065Y-110.765
X145.065Y-113.305
T3
X157.48Y-64.77
X157.48Y-67.31
X157.48Y-69.85
X106.68Y-105.41
X106.68Y-107.95
X106.68Y-110.49
X106.68Y-113.03
X160.02Y-114.3
X160.02Y-116.84
X123.19Y-68.58
X125.73Y-68.58
X152.4Y-64.77
X152.4Y-67.31
X152.4Y-69.85
X153.67Y-116.84
X156.21Y-116.84
X106.68Y-82.55
X106.68Y-85.09
X106.68Y-87.63
X106.68Y-90.17
X152.4Y-110.49
X154.94Y-110.49
X157.48Y-110.49
X160.02Y-110.49
X162.56Y-110.49
X165.1Y-110.49
T4
X110.49Y-100.33
X110.49Y-102.87
X110.49Y-105.41
X110.49Y-107.95
X110.49Y-110.49
X110.49Y-113.03
X110.49Y-115.57
X110.49Y-118.11
X123.19Y-100.33
X123.19Y-102.87
X123.19Y-105.41
X123.19Y-107.95
X123.19Y-110.49
X123.19Y-113.03
X123.19Y-115.57
X123.19Y-118.11
X110.49Y-77.47
X110.49Y-80.01
X110.49Y-82.55
X110.49Y-85.09
X110.49Y-87.63
X110.49Y-90.17
X110.49Y-92.71
X110.49Y-95.25
X123.19Y-77.47
X123.19Y-80.01
X123.19Y-82.55
X123.19Y-85.09
X123.19Y-87.63
X123.19Y-90.17
X123.19Y-92.71
X123.19Y-95.25
T5
X133.35Y-68.58
X140.55Y-68.58
T0
M30
